<mxfile host="app.diagrams.net" modified="2023-10-14T15:15:18.801Z" agent="Mozilla/5.0 (Windows NT 10.0; Win64; x64) AppleWebKit/537.36 (KHTML, like Gecko) Chrome/117.0.0.0 Safari/537.36 Edg/117.0.2045.60" etag="o8-GgZ3XSljwXkonyATC" version="22.0.4" type="github">
  <diagram id="R2lEEEUBdFMjLlhIrx00" name="Page-1">
    <mxGraphModel dx="2975" dy="2232" grid="1" gridSize="10" guides="1" tooltips="1" connect="1" arrows="1" fold="1" page="1" pageScale="1" pageWidth="850" pageHeight="1100" math="0" shadow="0" extFonts="Permanent Marker^https://fonts.googleapis.com/css?family=Permanent+Marker">
      <root>
        <mxCell id="0" />
        <mxCell id="1" parent="0" />
        <mxCell id="sNbGztk35qfkY_PWm8qU-1" value="Users" style="rounded=0;whiteSpace=wrap;html=1;" vertex="1" parent="1">
          <mxGeometry x="-530" y="-350" width="120" height="60" as="geometry" />
        </mxCell>
        <mxCell id="sNbGztk35qfkY_PWm8qU-2" value="Roles" style="rounded=0;whiteSpace=wrap;html=1;" vertex="1" parent="1">
          <mxGeometry x="-600" y="-30" width="120" height="60" as="geometry" />
        </mxCell>
        <mxCell id="sNbGztk35qfkY_PWm8qU-3" value="Documents" style="rounded=0;whiteSpace=wrap;html=1;" vertex="1" parent="1">
          <mxGeometry x="156" y="420" width="120" height="60" as="geometry" />
        </mxCell>
        <mxCell id="sNbGztk35qfkY_PWm8qU-4" value="Cars Brands" style="rounded=0;whiteSpace=wrap;html=1;" vertex="1" parent="1">
          <mxGeometry x="330" y="420" width="120" height="60" as="geometry" />
        </mxCell>
        <mxCell id="sNbGztk35qfkY_PWm8qU-5" value="Services" style="rounded=0;whiteSpace=wrap;html=1;" vertex="1" parent="1">
          <mxGeometry x="330" y="320" width="120" height="60" as="geometry" />
        </mxCell>
        <mxCell id="sNbGztk35qfkY_PWm8qU-6" value="Branches" style="rounded=0;whiteSpace=wrap;html=1;" vertex="1" parent="1">
          <mxGeometry x="500" y="320" width="120" height="60" as="geometry" />
        </mxCell>
        <mxCell id="sNbGztk35qfkY_PWm8qU-7" value="Vehicle" style="rounded=0;whiteSpace=wrap;html=1;" vertex="1" parent="1">
          <mxGeometry x="500" y="420" width="120" height="60" as="geometry" />
        </mxCell>
        <mxCell id="sNbGztk35qfkY_PWm8qU-8" value="Vehicle Types" style="rounded=0;whiteSpace=wrap;html=1;" vertex="1" parent="1">
          <mxGeometry x="500" y="520" width="120" height="60" as="geometry" />
        </mxCell>
        <mxCell id="sNbGztk35qfkY_PWm8qU-9" value="Cars Models" style="rounded=0;whiteSpace=wrap;html=1;" vertex="1" parent="1">
          <mxGeometry x="330" y="520" width="120" height="60" as="geometry" />
        </mxCell>
        <mxCell id="sNbGztk35qfkY_PWm8qU-10" value="Providers" style="rounded=0;whiteSpace=wrap;html=1;" vertex="1" parent="1">
          <mxGeometry x="-100" y="-300" width="120" height="60" as="geometry" />
        </mxCell>
        <mxCell id="sNbGztk35qfkY_PWm8qU-11" value="Service Types" style="rounded=0;whiteSpace=wrap;html=1;" vertex="1" parent="1">
          <mxGeometry x="330" y="220" width="120" height="60" as="geometry" />
        </mxCell>
        <mxCell id="sNbGztk35qfkY_PWm8qU-12" value="Colors" style="rounded=0;whiteSpace=wrap;html=1;" vertex="1" parent="1">
          <mxGeometry x="160" y="520" width="120" height="60" as="geometry" />
        </mxCell>
        <mxCell id="sNbGztk35qfkY_PWm8qU-13" value="Spare Parts" style="rounded=0;whiteSpace=wrap;html=1;" vertex="1" parent="1">
          <mxGeometry x="160" y="620" width="120" height="60" as="geometry" />
        </mxCell>
        <mxCell id="sNbGztk35qfkY_PWm8qU-14" value="Staff" style="rounded=0;whiteSpace=wrap;html=1;" vertex="1" parent="1">
          <mxGeometry x="-270" y="-120" width="120" height="60" as="geometry" />
        </mxCell>
        <mxCell id="sNbGztk35qfkY_PWm8qU-15" value="Requests" style="rounded=0;whiteSpace=wrap;html=1;" vertex="1" parent="1">
          <mxGeometry x="660" y="420" width="120" height="60" as="geometry" />
        </mxCell>
        <mxCell id="sNbGztk35qfkY_PWm8qU-16" value="Service Statuses" style="rounded=0;whiteSpace=wrap;html=1;" vertex="1" parent="1">
          <mxGeometry x="330" y="620" width="120" height="60" as="geometry" />
        </mxCell>
        <mxCell id="sNbGztk35qfkY_PWm8qU-17" value="Provider Services" style="rounded=0;whiteSpace=wrap;html=1;" vertex="1" parent="1">
          <mxGeometry x="660" y="220" width="120" height="60" as="geometry" />
        </mxCell>
        <mxCell id="sNbGztk35qfkY_PWm8qU-18" value="Branch Services" style="rounded=0;whiteSpace=wrap;html=1;" vertex="1" parent="1">
          <mxGeometry x="660" y="520" width="120" height="60" as="geometry" />
        </mxCell>
        <mxCell id="sNbGztk35qfkY_PWm8qU-19" value="Reviews" style="rounded=0;whiteSpace=wrap;html=1;" vertex="1" parent="1">
          <mxGeometry x="660" y="620" width="120" height="60" as="geometry" />
        </mxCell>
        <mxCell id="sNbGztk35qfkY_PWm8qU-20" value="Schedual" style="rounded=0;whiteSpace=wrap;html=1;" vertex="1" parent="1">
          <mxGeometry x="500" y="620" width="120" height="60" as="geometry" />
        </mxCell>
        <mxCell id="sNbGztk35qfkY_PWm8qU-21" value="Registration Requests" style="rounded=0;whiteSpace=wrap;html=1;" vertex="1" parent="1">
          <mxGeometry x="660" y="130" width="120" height="60" as="geometry" />
        </mxCell>
        <mxCell id="sNbGztk35qfkY_PWm8qU-22" value="Vehicle Exports" style="rounded=0;whiteSpace=wrap;html=1;" vertex="1" parent="1">
          <mxGeometry x="330" y="130" width="120" height="60" as="geometry" />
        </mxCell>
        <mxCell id="sNbGztk35qfkY_PWm8qU-23" value="Complaints &amp;amp; Suggestions" style="rounded=0;whiteSpace=wrap;html=1;" vertex="1" parent="1">
          <mxGeometry x="500" y="130" width="120" height="60" as="geometry" />
        </mxCell>
        <mxCell id="sNbGztk35qfkY_PWm8qU-24" value="Reports" style="rounded=0;whiteSpace=wrap;html=1;" vertex="1" parent="1">
          <mxGeometry x="160" y="130" width="120" height="60" as="geometry" />
        </mxCell>
        <mxCell id="sNbGztk35qfkY_PWm8qU-25" value="Payemnts" style="rounded=0;whiteSpace=wrap;html=1;" vertex="1" parent="1">
          <mxGeometry x="160" y="710" width="120" height="60" as="geometry" />
        </mxCell>
        <mxCell id="sNbGztk35qfkY_PWm8qU-26" value="Payemnts Methods" style="rounded=0;whiteSpace=wrap;html=1;" vertex="1" parent="1">
          <mxGeometry x="330" y="710" width="120" height="60" as="geometry" />
        </mxCell>
        <mxCell id="sNbGztk35qfkY_PWm8qU-28" value="Profit Percentages" style="rounded=0;whiteSpace=wrap;html=1;" vertex="1" parent="1">
          <mxGeometry x="570" y="730" width="120" height="60" as="geometry" />
        </mxCell>
        <mxCell id="sNbGztk35qfkY_PWm8qU-29" value="user_id" style="ellipse;whiteSpace=wrap;html=1;" vertex="1" parent="1">
          <mxGeometry x="-630" y="-430" width="80" height="40" as="geometry" />
        </mxCell>
        <mxCell id="sNbGztk35qfkY_PWm8qU-30" value="role_id" style="ellipse;whiteSpace=wrap;html=1;" vertex="1" parent="1">
          <mxGeometry x="-820" y="-270" width="80" height="40" as="geometry" />
        </mxCell>
        <mxCell id="sNbGztk35qfkY_PWm8qU-31" value="email" style="ellipse;whiteSpace=wrap;html=1;" vertex="1" parent="1">
          <mxGeometry x="-505" y="-470" width="80" height="40" as="geometry" />
        </mxCell>
        <mxCell id="sNbGztk35qfkY_PWm8qU-32" value="password" style="ellipse;whiteSpace=wrap;html=1;" vertex="1" parent="1">
          <mxGeometry x="-380" y="-420" width="80" height="40" as="geometry" />
        </mxCell>
        <mxCell id="sNbGztk35qfkY_PWm8qU-34" value="customers" style="rounded=0;whiteSpace=wrap;html=1;" vertex="1" parent="1">
          <mxGeometry x="-770" y="-190" width="120" height="60" as="geometry" />
        </mxCell>
        <mxCell id="sNbGztk35qfkY_PWm8qU-35" value="role_id" style="ellipse;whiteSpace=wrap;html=1;" vertex="1" parent="1">
          <mxGeometry x="-80" y="-380" width="80" height="40" as="geometry" />
        </mxCell>
      </root>
    </mxGraphModel>
  </diagram>
</mxfile>
